<svg width="1000" height="1000" viewBox="0 0 1000 1000" xmlns="http://www.w3.org/2000/svg">
  <path fill="currentColor" opacity="0.99" d="M 555.5 274.0 L 624.5 274.0 L 645.5 274.0 L 650.5 275.0 L 654.0 276.5 L 659.0 281.5 L 659.5 283.0 L 662.0 284.5 L 702.5 328.0 L 704.0 328.5 L 705.5 331.0 L 707.0 331.5 L 735.5 362.0 L 737.0 362.5 L 738.5 365.0 L 740.0 365.5 L 749.5 378.0 L 752.0 379.5 L 752.5 381.0 L 772.0 399.5 L 774.5 403.0 L 776.0 406.5 L 745.5 439.0 L 744.0 439.5 L 732.5 453.0 L 717.0 467.5 L 700.5 486.0 L 698.0 487.5 L 694.5 492.0 L 693.0 492.5 L 691.5 495.0 L 690.0 495.5 L 689.5 497.0 L 681.0 504.5 L 680.5 506.0 L 679.0 506.5 L 660.5 526.0 Q 659.0999755859375 528.5999755859375 654.5 528.0 L 649.5 529.0 Q 648.0 526.5 642.5 528.0 L 637.5 529.0 Q 636.0 526.5 630.5 528.0 L 612.5 528.0 L 607.5 529.0 L 592.5 529.0 L 590.5 528.0 Q 588.7999877929688 530.7999877929688 582.5 529.0 L 560.5 529.0 Q 557.7999877929688 527.7999877929688 560.0 526.5 L 563.5 522.0 L 566.0 520.5 L 566.5 519.0 L 568.0 518.5 L 569.5 516.0 L 571.0 515.5 L 585.5 499.0 L 596.0 489.5 L 596.5 488.0 L 599.0 486.5 L 599.5 485.0 L 607.0 478.5 L 608.5 476.0 L 610.0 475.5 L 628.0 455.5 L 633.0 448.5 L 630.0 445.5 L 626.5 444.0 L 617.5 444.0 L 582.5 444.0 L 441.5 444.0 L 428.5 447.0 L 415.0 450.5 Q 388.70001220703125 460.20001220703125 373.0 480.5 L 366.0 489.5 L 358.5 503.0 L 353.5 515.0 L 350.0 526.5 L 349.0 533.5 L 348.0 543.5 L 348.0 566.5 L 353.5 588.0 Q 358.1000061035156 603.9000244140625 367.0 615.5 L 385.5 635.0 L 390.0 637.5 L 390.5 639.0 Q 402.29998779296875 650.2000122070312 421.5 654.0 Q 423.79998779296875 656.7999877929688 429.0 656.5 L 440.0 658.5 L 461.5 659.0 L 476.5 656.0 L 493.5 651.0 L 507.0 644.5 L 517.5 637.0 L 530.0 624.5 L 535.5 617.0 L 537.0 616.5 L 543.5 605.0 L 549.0 592.5 L 551.5 582.0 Q 553.7999877929688 579.2999877929688 553.0 573.5 L 555.5 568.0 L 564.5 567.0 Q 565.7999877929688 569.2999877929688 570.5 568.0 L 574.5 567.0 L 582.5 567.0 L 585.5 568.0 L 588.5 567.0 L 597.5 567.0 L 633.5 567.0 L 636.5 568.0 Q 641.5999755859375 567.4000244140625 643.0 570.5 L 642.0 582.5 L 637.0 604.5 L 631.0 622.5 Q 628.0 625.5 628.0 631.5 L 620.0 647.5 L 604.0 671.5 L 586.5 691.0 L 565.5 709.0 Q 552.2999877929688 719.7999877929688 534.5 726.0 L 513.0 733.5 L 504.5 736.0 L 490.5 739.0 L 478.5 741.0 L 463.5 742.0 L 429.5 742.0 L 419.5 740.0 L 406.0 737.5 L 391.5 734.0 Q 387.0 730.5 379.5 730.0 L 361.0 722.5 L 340.5 710.0 Q 316.5 693.5 298.0 671.5 L 284.5 650.0 L 274.0 625.5 L 268.5 610.0 L 266.0 600.5 L 264.5 592.0 L 263.0 583.5 L 261.5 572.0 L 261.0 563.5 L 260.0 544.5 Q 262.29998779296875 543.2999877929688 261.0 538.5 L 262.0 526.5 L 265.0 506.5 L 267.0 496.5 L 273.0 480.5 L 278.0 467.5 L 286.0 451.5 Q 299.29998779296875 427.29998779296875 319.5 410.0 L 342.0 392.5 L 350.5 387.0 L 362.5 382.0 L 370.5 378.0 L 387.5 372.0 L 397.5 369.0 Q 399.79998779296875 365.79998779296875 406.5 367.0 L 419.5 364.0 L 425.5 363.0 L 437.0 361.5 L 447.5 361.0 L 476.5 361.0 L 584.5 361.0 L 611.5 361.0 Q 622.0 363.0 625.0 357.5 Q 623.2000122070312 346.29998779296875 615.0 341.5 Q 604.5999755859375 326.3999938964844 590.5 315.0 L 588.0 313.5 L 570.5 293.0 L 568.0 291.5 L 554.0 275.5 L 555.5 274.0 Z" />
  <path fill="currentColor" opacity="0.78" d="M 553.5 273.0 L 624.5 273.0 L 642.5 273.0 Q 654.0 272.0 658.0 278.5 L 686.5 309.0 L 735.5 360.0 L 738.0 361.5 L 739.5 364.0 L 742.0 365.5 L 750.5 377.0 L 772.0 397.5 L 775.5 402.0 Q 778.0 403.0 777.0 407.5 L 737.5 450.0 L 736.0 450.5 L 734.5 453.0 L 733.0 453.5 L 731.5 456.0 L 730.0 456.5 L 729.5 458.0 L 716.0 470.5 L 693.5 495.0 L 681.0 506.5 L 661.5 527.0 L 656.5 529.0 L 648.5 530.0 L 630.5 530.0 L 558.5 530.0 L 557.0 527.5 L 583.5 499.0 L 608.0 475.5 L 608.5 474.0 L 610.0 473.5 L 625.0 456.5 L 629.5 452.0 L 631.0 448.5 Q 627.4000244140625 442.6000061035156 615.5 445.0 L 582.5 445.0 L 448.5 445.0 L 437.5 447.0 L 427.5 448.0 L 415.5 452.0 L 399.5 459.0 Q 386.29998779296875 467.79998779296875 376.0 479.5 L 375.5 481.0 L 374.0 481.5 Q 364.79998779296875 491.79998779296875 359.0 505.5 Q 353.5 515.5 351.5 529.0 L 349.5 542.0 L 349.0 560.5 L 352.0 577.5 L 355.0 587.5 L 358.0 595.5 Q 360.79998779296875 605.7000122070312 367.0 612.5 L 386.5 634.0 L 398.0 642.5 L 414.5 651.0 L 423.0 653.5 L 432.5 656.0 L 443.5 657.0 L 467.5 657.0 L 479.5 654.0 L 494.5 649.0 Q 508.3999938964844 644.9000244140625 517.0 635.5 L 531.0 621.5 Q 543.2999877929688 607.7999877929688 549.0 587.5 L 552.0 573.5 Q 551.4000244140625 568.4000244140625 554.5 567.0 Q 558.2999877929688 564.2999877929688 566.5 566.0 L 568.5 567.0 L 573.5 566.0 L 585.5 566.0 L 634.5 566.0 L 644.0 568.5 L 645.0 572.5 L 643.0 581.5 L 642.0 590.5 L 637.0 609.5 Q 631.0999755859375 619.5999755859375 629.0 633.5 Q 610.7999877929688 672.7999877929688 579.5 699.0 L 570.0 706.5 L 569.5 708.0 L 548.5 721.0 L 537.0 726.5 L 520.0 732.5 L 497.5 739.0 L 486.5 741.0 L 468.5 743.0 L 429.5 743.0 L 426.5 742.0 L 420.5 742.0 L 406.5 739.0 L 388.5 734.0 L 367.5 727.0 Q 352.1000061035156 721.9000244140625 341.5 712.0 Q 316.79998779296875 695.7000122070312 298.0 673.5 L 297.5 672.0 L 296.0 671.5 L 288.5 660.0 L 284.0 650.5 L 272.0 625.5 L 266.5 608.0 L 263.0 591.5 L 262.0 582.5 Q 258.70001220703125 577.7999877929688 260.0 568.5 L 259.0 539.5 Q 261.5 538.0 260.0 532.5 L 263.0 507.5 L 269.0 485.5 L 277.0 466.5 L 284.5 452.0 L 292.5 439.0 L 299.5 429.0 L 301.0 428.5 L 304.5 423.0 L 306.0 422.5 L 318.5 409.0 L 341.0 391.5 Q 350.0 384.0 362.5 380.0 L 377.5 374.0 L 386.5 371.0 Q 395.0 366.5 406.5 365.0 L 414.0 363.5 L 429.5 361.0 Q 436.20001220703125 358.70001220703125 446.5 360.0 L 476.5 359.0 L 585.5 359.0 L 612.5 359.0 L 618.5 359.0 Q 623.2999877929688 359.79998779296875 624.0 356.5 Q 621.5 348.0 615.0 343.5 L 590.5 317.0 L 587.0 314.5 L 570.5 295.0 L 569.0 294.5 L 556.5 281.0 L 553.5 278.0 L 552.0 274.5 L 553.5 273.0 Z" />
  <path fill="currentColor" opacity="0.24" d="M 589.5 269.0 L 629.5 269.0 L 647.5 270.0 Q 655.5 269.0 658.0 273.5 L 655.5 273.0 Q 651.2999877929688 269.70001220703125 643.0 270.5 L 626.5 270.0 Q 625.0 272.5 619.5 271.0 Q 618.2999877929688 268.79998779296875 613.5 270.0 L 595.5 270.0 L 592.5 271.0 L 590.5 270.0 Q 588.7999877929688 272.79998779296875 582.5 271.0 L 560.5 271.0 L 552.5 271.0 Q 548.7999877929688 270.29998779296875 548.0 272.5 Q 547.2999877929688 277.79998779296875 551.0 278.5 L 548.5 277.0 Q 546.0 276.0 547.0 271.5 L 550.5 270.0 L 559.5 270.0 L 580.5 270.0 L 586.5 270.0 L 589.5 269.0 Z" />
  <path fill="currentColor" opacity="0.24" d="M 411.5 360.0 L 416.0 360.5 L 410.5 362.0 L 404.5 363.0 L 400.0 363.5 L 393.5 366.0 L 383.5 369.0 L 377.0 371.5 L 363.5 377.0 L 351.0 382.5 L 333.0 394.5 Q 314.1000061035156 407.1000061035156 300.0 424.5 L 291.5 436.0 L 284.0 447.5 L 274.0 467.5 L 269.0 478.5 L 266.0 488.5 L 262.0 501.5 L 261.0 507.5 L 259.0 519.5 L 258.0 529.5 L 257.5 537.0 L 257.0 559.5 L 258.0 564.5 L 258.0 579.5 L 257.0 579.5 L 256.5 564.0 L 256.0 559.5 L 255.0 543.5 L 257.0 533.5 Q 255.60000610351562 524.5999755859375 258.0 519.5 L 260.0 506.5 Q 259.3999938964844 500.3999938964844 262.0 497.5 L 267.0 481.5 L 277.5 456.0 L 282.5 448.0 L 291.5 434.0 L 300.5 422.0 L 317.5 405.0 L 335.5 391.0 L 354.5 379.0 Q 358.79998779296875 379.79998779296875 359.5 377.0 L 369.5 373.0 L 391.0 365.5 L 400.5 362.0 Q 407.8999938964844 362.8999938964844 411.5 360.0 Z" />
  <path fill="currentColor" opacity="0.24" d="M 352.5 555.0 Q 351.70001220703125 565.7999877929688 355.0 572.5 Q 354.20001220703125 577.7999877929688 357.0 579.5 L 360.0 592.5 L 365.0 601.5 Q 368.3999938964844 611.5999755859375 375.5 618.0 L 386.5 629.0 L 398.5 638.0 L 410.0 644.5 L 419.0 648.5 L 430.5 652.0 L 439.0 653.5 L 462.5 654.0 L 471.5 652.0 L 489.5 647.0 Q 499.70001220703125 644.7000122070312 506.5 639.0 Q 514.7000122070312 635.7000122070312 519.0 628.5 L 525.0 622.5 L 528.5 618.0 L 530.0 617.5 L 538.5 604.0 Q 541.5999755859375 602.5999755859375 541.0 597.5 Q 546.0 591.0 547.0 580.5 L 549.5 569.0 L 550.0 574.5 Q 547.4000244140625 577.4000244140625 548.0 583.5 L 542.0 598.5 L 538.5 606.0 L 532.5 616.0 L 531.0 616.5 L 513.5 636.0 L 500.5 644.0 L 490.0 648.5 L 468.5 654.0 L 458.5 655.0 L 436.5 655.0 L 415.5 649.0 Q 395.70001220703125 640.7999877929688 382.0 626.5 L 380.0 624.5 Q 371.79998779296875 617.7000122070312 367.0 607.5 L 360.0 595.5 L 355.0 579.5 L 353.0 570.5 L 352.0 565.5 L 352.5 555.0 Z" />
  <path fill="currentColor" opacity="0.24" d="M 643.5 594.0 L 644.0 598.5 L 634.5 627.0 L 632.0 636.5 L 624.5 650.0 L 609.5 673.0 L 591.5 693.0 L 567.0 713.5 L 555.5 721.0 L 542.5 728.0 L 531.5 732.0 L 513.0 738.5 L 499.5 742.0 L 486.5 744.0 L 478.5 746.0 L 466.5 746.0 L 466.5 745.0 Q 476.0 746.5 481.5 744.0 L 493.5 742.0 L 511.5 738.0 L 531.5 731.0 L 549.0 723.5 L 562.0 715.5 L 574.0 706.5 L 593.0 689.5 L 607.5 673.0 L 621.5 653.0 Q 627.2999877929688 646.2999877929688 630.0 636.5 L 632.0 631.5 L 633.5 625.0 L 638.0 613.5 L 643.5 594.0 Z" />
  <path fill="currentColor" opacity="0.24" d="M 261.5 599.0 L 265.5 613.0 L 273.0 635.5 L 284.0 657.5 L 301.5 681.0 L 312.5 692.0 L 342.0 715.5 Q 350.6000061035156 723.4000244140625 363.0 727.5 L 388.0 736.5 L 396.5 739.0 L 406.5 741.0 Q 410.0 744.0 417.0 743.5 L 437.0 745.5 L 422.5 746.0 L 397.0 740.5 L 372.5 732.0 Q 352.29998779296875 726.2000122070312 338.0 714.5 Q 313.1000061035156 697.4000244140625 294.0 674.5 L 288.5 667.0 L 283.0 656.5 L 275.5 643.0 L 269.5 629.0 L 266.0 617.5 L 263.0 609.5 L 261.5 604.0 L 261.5 599.0 Z" />
</svg>
